<svg width="251" height="207" viewBox="0 0 251 207" fill="none" xmlns="http://www.w3.org/2000/svg">
<g filter="url(#filter0_d_38_2)">
<path d="M130.146 48.1178L163.676 62.9135V53.6715L174.779 48.1178V32.3894V20.8369L146.071 17.5937L163.676 11.1074L155.64 0L195.525 17.5937L221.02 11.1074H246.587L233.803 20.8369L221.02 24.0801L233.803 32.3894V48.1178L221.02 62.9135L195.525 84.238L174.779 107.343L155.64 165.678L138.108 183.229L146.071 150.84L112.614 188.783L88.7265 199L112.614 173.987L120.576 149.017L67.9804 183.229L104.651 147.151L50.4485 173.987H4.20801L15.3116 165.678L88.7265 144.396L31.3094 157.326H15.3116L4.20801 150.84L31.3094 145.286L50.4485 144.396L67.9804 136.977H88.7265L60.018 128.625H88.7265L112.614 125.869L130.146 114.762L138.108 100.899V81.4399L112.614 75.8862L39.2719 84.238L79.157 75.8862L39.2719 69.3999L67.9804 62.9135L39.2719 48.1178L67.9804 53.6715L50.4485 32.3894L79.157 48.1178V32.3894L95.0818 48.1178H130.146Z" fill="url(#paint0_linear_38_2)"/>
<path d="M164.176 62.9135V53.9805L175.003 48.565L175.279 48.4268V48.1178V32.3894V20.8369V20.3902L174.835 20.3401L148.223 17.3337L163.848 11.5765L164.467 11.3486L164.081 10.8143L157.127 1.20241L195.323 18.0512L195.481 18.1208L195.648 18.0783L221.082 11.6074H245.104L233.582 20.3773L220.897 23.5955L219.789 23.8765L220.747 24.4993L233.303 32.6608V47.9317L220.668 62.5559L195.204 83.8544L195.177 83.8773L195.153 83.9039L174.407 107.009L174.337 107.087L174.304 107.187L155.202 165.409L139.022 181.607L146.556 150.959L145.695 150.509L112.313 188.368L90.7733 197.581L112.975 174.333L113.055 174.249L113.09 174.139L121.053 149.169L121.478 147.834L120.304 148.598L71.8739 180.1L105.002 147.508L104.43 146.703L50.3315 173.487H5.71065L15.5382 166.133L88.8657 144.876L88.6167 143.908L31.2539 156.826H15.4469L5.58865 151.067L31.3716 145.784L50.4717 144.895L50.561 144.891L50.6433 144.856L68.0818 137.477H88.7265L88.8662 136.497L63.5267 129.125H88.7265H88.7553L88.7838 129.122L112.671 126.366L112.785 126.353L112.881 126.292L130.413 115.184L130.518 115.118L130.579 115.011L138.542 101.148L138.608 101.032V100.899V81.4399V81.0371L138.215 80.9514L112.72 75.3977L112.639 75.3801L112.557 75.3894L49.8882 82.5258L79.2595 76.3756L79.2373 75.3927L41.8948 69.3199L68.0906 63.4012L69.4307 63.0984L68.2094 62.4691L42.6011 49.2711L67.8854 54.1624L69.2501 54.4264L68.3663 53.3536L52.4851 34.0754L78.9168 48.5563L79.657 48.9619V48.1178V33.586L94.7305 48.4735L94.8765 48.6178H95.0818H130.04L163.474 63.3709L164.176 63.6807V62.9135Z" stroke="#50421C"/>
</g>
<defs>
<filter id="filter0_d_38_2" x="0.208008" y="0" width="250.379" height="207" filterUnits="userSpaceOnUse" color-interpolation-filters="sRGB">
<feFlood flood-opacity="0" result="BackgroundImageFix"/>
<feColorMatrix in="SourceAlpha" type="matrix" values="0 0 0 0 0 0 0 0 0 0 0 0 0 0 0 0 0 0 127 0" result="hardAlpha"/>
<feOffset dy="4"/>
<feGaussianBlur stdDeviation="2"/>
<feComposite in2="hardAlpha" operator="out"/>
<feColorMatrix type="matrix" values="0 0 0 0 0 0 0 0 0 0 0 0 0 0 0 0 0 0 0.25 0"/>
<feBlend mode="normal" in2="BackgroundImageFix" result="effect1_dropShadow_38_2"/>
<feBlend mode="normal" in="SourceGraphic" in2="effect1_dropShadow_38_2" result="shape"/>
</filter>
<linearGradient id="paint0_linear_38_2" x1="262.927" y1="1.06352e-05" x2="108.627" y2="239.888" gradientUnits="userSpaceOnUse">
<stop stop-color="#811FE2"/>
</linearGradient>
</defs>
</svg>
