<svg width="90" height="90" viewBox="0 0 90 90" fill="none" xmlns="http://www.w3.org/2000/svg">
<path d="M22.4996 28.636C25.8887 28.636 28.636 25.8887 28.636 22.4996C28.636 19.1106 25.8887 16.3633 22.4996 16.3633C19.1106 16.3633 16.3633 19.1106 16.3633 22.4996C16.3633 25.8887 19.1106 28.636 22.4996 28.636Z" fill="white"/>
<path d="M16.3633 36.8184C16.3633 34.5591 18.1949 32.7275 20.4542 32.7275H24.5451C26.8044 32.7275 28.636 34.5591 28.636 36.8184V69.5457C28.636 71.8051 26.8044 73.6366 24.5451 73.6366H20.4542C18.1949 73.6366 16.3633 71.8051 16.3633 69.5457V36.8184Z" fill="white"/>
<path d="M40.9093 73.6361H45.0002C47.2596 73.6361 49.0911 71.8046 49.0911 69.5452V51.1361C49.0911 44.9998 61.3638 40.9089 61.3638 49.0907V69.5469C61.3638 71.8063 63.1953 73.6361 65.4547 73.6361H69.5456C71.805 73.6361 73.6365 71.8046 73.6365 69.5452V44.9998C73.6365 36.818 67.5002 32.7271 59.3184 32.7271C51.1365 32.7271 49.0911 38.8634 49.0911 38.8634V36.818C49.0911 34.5586 47.2596 32.7271 45.0002 32.7271H40.9093C38.6499 32.7271 36.8184 34.5586 36.8184 36.818V69.5452C36.8184 71.8046 38.6499 73.6361 40.9093 73.6361Z" fill="white"/>
<path fill-rule="evenodd" clip-rule="evenodd" d="M77.7273 0C84.5055 0 90 5.4947 90 12.2727V77.7273C90 84.5055 84.5055 90 77.7273 90H12.2727C5.4947 90 0 84.5055 0 77.7273V12.2727C0 5.4947 5.4947 0 12.2727 0H77.7273ZM77.7273 8.18182C79.9867 8.18182 81.8182 10.0134 81.8182 12.2727V77.7273C81.8182 79.9867 79.9867 81.8182 77.7273 81.8182H12.2727C10.0134 81.8182 8.18182 79.9867 8.18182 77.7273V12.2727C8.18182 10.0134 10.0134 8.18182 12.2727 8.18182H77.7273Z" fill="white"/>
</svg>
