<svg width="90" height="94" viewBox="0 0 90 94" fill="none" xmlns="http://www.w3.org/2000/svg">
<path d="M20.5114 28.6615C20.9789 24.9644 25.7836 19.9397 29.5968 20.4973L29.5907 20.4912C33.3016 21.1964 36.2393 27.5834 37.8957 30.4554C39.0694 32.5392 38.3072 34.6505 37.2125 35.5413C35.7357 36.7316 33.4263 38.374 33.9109 40.023C34.7723 42.9546 44.9996 53.1819 50.0297 56.0893C51.9337 57.1897 53.3143 54.2872 54.4933 52.8002C55.35 51.6564 57.4629 50.9728 59.5419 52.1019C62.6469 53.91 65.5719 56.0115 68.2768 58.3773C69.6277 59.5064 69.9447 61.1751 69.0087 62.9387C67.3601 66.0449 62.5917 70.1411 59.1304 69.3086C53.0848 67.8551 28.6359 58.3773 20.7827 30.9192C20.3411 29.6202 20.4523 29.1291 20.5114 28.6615Z" fill="white"/>
<path fill-rule="evenodd" clip-rule="evenodd" d="M45 90C39.9944 90 37.2248 89.4629 32.7273 87.9545L24.1136 92.2615C18.6734 94.9815 12.2727 91.0256 12.2727 84.9432V75.6818C3.46316 67.4673 0 57.9956 0 45C0 20.1472 20.1472 0 45 0C69.8527 0 90 20.1472 90 45C90 69.8527 69.8527 90 45 90ZM20.4545 72.124L17.8525 69.6976C11.0081 63.3158 8.18182 56.1809 8.18182 45C8.18182 24.6659 24.6659 8.18182 45 8.18182C65.3343 8.18182 81.8182 24.6659 81.8182 45C81.8182 65.3343 65.3343 81.8182 45 81.8182C40.9676 81.8182 39.0764 81.4541 35.3289 80.1974L32.1074 79.117L20.4545 84.9432V72.124Z" fill="white"/>
</svg>
