<svg width="90" height="77" viewBox="0 0 90 77" fill="none" xmlns="http://www.w3.org/2000/svg">
<path fill-rule="evenodd" clip-rule="evenodd" d="M76.8388 5.10377C78.2645 4.76587 79.2585 4.43365 80.073 4.08473C81.2144 3.59571 82.1606 3.00989 83.6558 2.02329C84.9121 1.19411 86.5223 1.1219 87.8478 1.83527C89.1732 2.54864 90 3.93235 90 5.43763C90 9.8596 89.449 13.4839 88.1734 16.6734C87.1 19.3563 85.5921 21.5353 83.7884 23.5187C83.0267 37.2768 79.0442 48.0813 72.9557 56.2668C66.6451 64.7509 58.2489 70.184 49.3983 73.2268C40.5734 76.2602 31.2491 76.938 22.8958 75.9108C14.5973 74.8905 6.92636 72.1431 1.5796 67.9847C0.11539 66.8458 -0.399314 64.8642 0.32558 63.1566C1.05049 61.4491 2.8335 60.4431 4.66982 60.7058C9.93059 61.4573 14.9947 60.2611 19.1588 58.5511C18.3391 58.1052 17.5662 57.6225 16.8478 57.125C13.0533 54.4983 9.99191 50.9322 8.61398 48.1762C8.04375 47.0361 8.03786 45.6947 8.59806 44.5496C8.88705 43.9585 9.30964 43.4549 9.82271 43.0708C4.28254 38.4984 2.04572 32.1742 2.04572 27.9376C2.04572 26.6778 2.62614 25.4883 3.61908 24.7131C4.03659 24.3871 4.50746 24.1496 5.0038 24.0066C4.58923 22.7927 4.26753 21.5662 4.02232 20.3788C2.93508 15.1144 3.03158 9.17254 4.21332 4.44547C4.61771 2.82785 5.96336 1.61755 7.61465 1.38626C9.2659 1.155 10.8923 1.94904 11.7256 3.39333C16.1335 11.0338 24.2641 15.704 31.831 18.4705C35.3886 19.7711 38.6834 20.6 41.1531 21.1095C41.6861 16.1162 43.0803 11.9984 45.2202 8.72773C48.0434 4.4127 51.9809 1.8597 56.2092 0.721322C63.502 -1.2419 71.5942 0.994757 76.8388 5.10377ZM39.88 29.2C37.0773 28.6371 33.2254 27.6917 29.0216 26.1548C23.4694 24.125 17.022 20.9598 11.6214 16.057C11.7181 16.9592 11.8553 17.8537 12.035 18.724C12.9401 23.1067 14.622 25.5613 16.1479 26.3242C18.0142 27.2574 18.8791 29.4456 18.1552 31.4027C17.175 34.0524 14.597 34.2696 12.2546 33.6842C14.1386 36.5086 17.5248 39.3247 23.1727 40.266C25.1207 40.5909 26.5587 42.2608 26.5906 44.2354C26.6224 46.2101 25.239 47.9254 23.3025 48.3128L19.7415 49.0251C20.2863 49.4984 20.8761 49.9627 21.5049 50.398C24.3559 52.3718 27.2185 53.2231 29.6898 52.6054C31.5407 52.1427 33.4658 53.0206 34.3296 54.722C35.1934 56.423 34.7666 58.4955 33.3009 59.7166C30.6667 61.9093 27.5903 63.6688 24.5071 65.1289C23.0597 65.8145 21.4421 66.4911 19.6853 67.0868C21.0364 67.3752 22.4424 67.6116 23.8943 67.7904C31.1376 68.681 39.1997 68.0804 46.7384 65.4893C54.2513 62.9067 61.1956 58.3682 66.391 51.3839C71.5787 44.4089 75.1991 34.7564 75.6847 21.6501C75.7228 20.6182 76.1499 19.6389 76.8801 18.9087C78.7194 17.0693 80.2395 14.9609 80.9873 12.4512C79.6787 12.8592 78.2051 13.2123 76.4501 13.5479C75.1185 13.8024 73.7477 13.3809 72.7892 12.4225C69.6617 9.29486 63.4763 7.23812 58.3361 8.62182C55.9171 9.27305 53.7183 10.6829 52.0668 13.2071C50.3809 15.7842 49.091 19.7991 49.091 25.8923C49.091 27.0499 48.6006 28.1533 47.7415 28.929C45.7042 30.7678 42.2756 29.681 39.88 29.2Z" fill="white"/>
</svg>
