<svg width="90" height="90" viewBox="0 0 90 90" fill="none" xmlns="http://www.w3.org/2000/svg">
<path fill-rule="evenodd" clip-rule="evenodd" d="M45.0005 69.5455C58.5566 69.5455 69.546 58.5561 69.546 45C69.546 31.444 58.5566 20.4546 45.0005 20.4546C31.4444 20.4546 20.4551 31.444 20.4551 45C20.4551 58.5561 31.4444 69.5455 45.0005 69.5455ZM45.0005 61.3637C54.0378 61.3637 61.3642 54.0373 61.3642 45C61.3642 35.9627 54.0378 28.6364 45.0005 28.6364C35.9631 28.6364 28.6369 35.9627 28.6369 45C28.6369 54.0373 35.9631 61.3637 45.0005 61.3637Z" fill="white"/>
<path d="M69.546 16.3638C67.2866 16.3638 65.4551 18.1954 65.4551 20.4547C65.4551 22.714 67.2866 24.5456 69.546 24.5456C71.8054 24.5456 73.6369 22.714 73.6369 20.4547C73.6369 18.1954 71.8054 16.3638 69.546 16.3638Z" fill="white"/>
<path fill-rule="evenodd" clip-rule="evenodd" d="M2.67529 13.4021C0 18.6526 0 25.526 0 39.2727V50.7273C0 64.474 0 71.3475 2.67529 76.5978C5.02855 81.2164 8.78351 84.9715 13.4021 87.3245C18.6526 90 25.526 90 39.2727 90H50.7273C64.474 90 71.3475 90 76.5978 87.3245C81.2164 84.9715 84.9715 81.2164 87.3245 76.5978C90 71.3475 90 64.474 90 50.7273V39.2727C90 25.526 90 18.6526 87.3245 13.4021C84.9715 8.78351 81.2164 5.02855 76.5978 2.67529C71.3475 0 64.474 0 50.7273 0H39.2727C25.526 0 18.6526 0 13.4021 2.67529C8.78351 5.02855 5.02855 8.78351 2.67529 13.4021ZM50.7273 8.18182H39.2727C32.2643 8.18182 27.5001 8.1882 23.8176 8.48905C20.2305 8.78212 18.3962 9.31332 17.1165 9.96533C14.0375 11.5342 11.5342 14.0375 9.96533 17.1165C9.31332 18.3962 8.78212 20.2305 8.48905 23.8176C8.1882 27.5001 8.18182 32.2643 8.18182 39.2727V50.7273C8.18182 57.7358 8.1882 62.4997 8.48905 66.1823C8.78212 69.7696 9.31332 71.604 9.96533 72.8836C11.5342 75.9625 14.0375 78.4657 17.1165 80.0345C18.3962 80.6866 20.2305 81.218 23.8176 81.511C27.5001 81.8116 32.2643 81.8182 39.2727 81.8182H50.7273C57.7358 81.8182 62.4997 81.8116 66.1823 81.511C69.7696 81.218 71.604 80.6866 72.8836 80.0345C75.9625 78.4657 78.4657 75.9625 80.0345 72.8836C80.6866 71.604 81.218 69.7696 81.511 66.1823C81.8116 62.4997 81.8182 57.7358 81.8182 50.7273V39.2727C81.8182 32.2643 81.8116 27.5001 81.511 23.8176C81.218 20.2305 80.6866 18.3962 80.0345 17.1165C78.4657 14.0375 75.9625 11.5342 72.8836 9.96533C71.604 9.31332 69.7696 8.78212 66.1823 8.48905C62.4997 8.1882 57.7358 8.18182 50.7273 8.18182Z" fill="white"/>
</svg>
