<svg width="90" height="90" viewBox="0 0 90 90" fill="none" xmlns="http://www.w3.org/2000/svg">
<path fill-rule="evenodd" clip-rule="evenodd" d="M77.7273 0C84.5055 0 90 5.4947 90 12.2727V77.7273C90 84.5055 84.5055 90 77.7273 90H12.2727C5.4947 90 0 84.5055 0 77.7273V12.2727C0 5.4947 5.4947 0 12.2727 0H77.7273ZM77.7273 8.18182C79.9867 8.18182 81.8182 10.0134 81.8182 12.2727V77.7273C81.8182 79.9867 79.9867 81.8182 77.7273 81.8182H12.2727C10.0134 81.8182 8.18182 79.9867 8.18182 77.7273V12.2727C8.18182 10.0134 10.0134 8.18182 12.2727 8.18182H77.7273Z" fill="white"/>
</svg>
